P2
16 16
255
0 0 0 0 0 0 0 0 0 0 0 0 0 0 0 0
0 0 0 0 0 0 0 0 0 0 0 0 0 0 0 0
0 0 0 0 0 0 0 0 0 76 102 0 0 0 0 0
0 0 0 0 0 0 0 0 0 150 100 0 0 0 0 0
0 0 0 0 0 0 0 0 26 187 31 0 0 0 0 0
0 0 0 0 0 0 0 0 94 175 1 0 0 0 0 0
0 0 0 0 0 0 0 0 160 155 0 0 0 0 0 0
0 0 0 0 0 0 0 29 206 59 0 0 0 0 0 0
0 0 0 0 0 0 0 93 206 14 0 0 0 0 0 0
0 0 0 0 0 0 3 160 134 0 0 0 0 0 0 0
0 0 0 0 0 0 19 215 88 0 0 0 0 0 0 0
0 0 0 0 0 0 61 244 48 0 0 0 0 0 0 0
0 0 0 0 0 0 149 208 10 0 0 0 0 0 0 0
0 0 0 0 0 0 114 74 0 0 0 0 0 0 0 0
0 0 0 0 0 0 0 0 0 0 0 0 0 0 0 0
0 0 0 0 0 0 0 0 0 0 0 0 0 0 0 0
