P2
14 14
255
0 0 0 0 0 0 0 0 0 0 0 0 0 0
0 0 0 0 0 0 0 0 0 0 0 0 0 0
0 0 0 0 0 0 0 0 0 0 0 0 0 0
0 0 255 255 255 255 255 255 255 255 255 255 0 0
0 0 255 255 255 255 255 255 255 255 255 255 0 0
0 0 255 255 255 255 255 255 255 255 255 255 0 0
0 0 0 0 0 0 0 255 255 255 255 0 0 0
0 0 0 0 0 0 0 255 255 255 255 0 0 0
0 0 0 0 0 0 255 255 255 255 0 0 0 0
0 0 0 0 0 0 255 255 255 255 0 0 0 0
0 0 0 0 0 255 255 255 255 0 0 0 0 0
0 0 0 0 255 255 255 255 255 0 0 0 0 0
0 0 0 0 255 255 255 255 0 0 0 0 0 0
0 0 0 0 255 255 255 255 0 0 0 0 0 0
